<svg width="74" height="10" viewBox="0 0 74 10" fill="none" xmlns="http://www.w3.org/2000/svg">
<path d="M1.26367 5.66016V9H0.138672V0.46875H3.28516C4.21875 0.46875 4.94922 0.707031 5.47656 1.18359C6.00781 1.66016 6.27344 2.29102 6.27344 3.07617C6.27344 3.9043 6.01367 4.54297 5.49414 4.99219C4.97852 5.4375 4.23828 5.66016 3.27344 5.66016H1.26367ZM1.26367 4.74023H3.28516C3.88672 4.74023 4.34766 4.59961 4.66797 4.31836C4.98828 4.0332 5.14844 3.62305 5.14844 3.08789C5.14844 2.58008 4.98828 2.17383 4.66797 1.86914C4.34766 1.56445 3.9082 1.40625 3.34961 1.39453H1.26367V4.74023ZM12.8379 5.54883H10.834V9H9.70312V0.46875H12.5273C13.4883 0.46875 14.2266 0.6875 14.7422 1.125C15.2617 1.5625 15.5215 2.19922 15.5215 3.03516C15.5215 3.56641 15.377 4.0293 15.0879 4.42383C14.8027 4.81836 14.4043 5.11328 13.8926 5.30859L15.8965 8.92969V9H14.6895L12.8379 5.54883ZM10.834 4.62891H12.5625C13.1211 4.62891 13.5645 4.48438 13.8926 4.19531C14.2246 3.90625 14.3906 3.51953 14.3906 3.03516C14.3906 2.50781 14.2324 2.10352 13.916 1.82227C13.6035 1.54102 13.1504 1.39844 12.5566 1.39453H10.834V4.62891ZM25.666 5.00977C25.666 5.8457 25.5254 6.57617 25.2441 7.20117C24.9629 7.82227 24.5645 8.29688 24.0488 8.625C23.5332 8.95312 22.9316 9.11719 22.2441 9.11719C21.5723 9.11719 20.9766 8.95312 20.457 8.625C19.9375 8.29297 19.5332 7.82227 19.2441 7.21289C18.959 6.59961 18.8125 5.89062 18.8047 5.08594V4.4707C18.8047 3.65039 18.9473 2.92578 19.2324 2.29688C19.5176 1.66797 19.9199 1.1875 20.4395 0.855469C20.9629 0.519531 21.5605 0.351562 22.2324 0.351562C22.916 0.351562 23.5176 0.517578 24.0371 0.849609C24.5605 1.17773 24.9629 1.65625 25.2441 2.28516C25.5254 2.91016 25.666 3.63867 25.666 4.4707V5.00977ZM24.5469 4.45898C24.5469 3.44727 24.3438 2.67188 23.9375 2.13281C23.5312 1.58984 22.9629 1.31836 22.2324 1.31836C21.5215 1.31836 20.9609 1.58984 20.5508 2.13281C20.1445 2.67188 19.9355 3.42188 19.9238 4.38281V5.00977C19.9238 5.99023 20.1289 6.76172 20.5391 7.32422C20.9531 7.88281 21.5215 8.16211 22.2441 8.16211C22.9707 8.16211 23.5332 7.89844 23.9316 7.37109C24.3301 6.83984 24.5352 6.08008 24.5469 5.0918V4.45898ZM29.3535 9V0.46875H31.7617C32.5039 0.46875 33.1602 0.632812 33.7305 0.960938C34.3008 1.28906 34.7402 1.75586 35.0488 2.36133C35.3613 2.9668 35.5195 3.66211 35.5234 4.44727V4.99219C35.5234 5.79688 35.3672 6.50195 35.0547 7.10742C34.7461 7.71289 34.3027 8.17773 33.7246 8.50195C33.1504 8.82617 32.4805 8.99219 31.7148 9H29.3535ZM30.4785 1.39453V8.08008H31.6621C32.5293 8.08008 33.2031 7.81055 33.6836 7.27148C34.168 6.73242 34.4102 5.96484 34.4102 4.96875V4.4707C34.4102 3.50195 34.1816 2.75 33.7246 2.21484C33.2715 1.67578 32.627 1.40234 31.791 1.39453H30.4785ZM45.2344 0.46875V6.26953C45.2305 7.07422 44.9766 7.73242 44.4727 8.24414C43.9727 8.75586 43.293 9.04297 42.4336 9.10547L42.1348 9.11719C41.2012 9.11719 40.457 8.86523 39.9023 8.36133C39.3477 7.85742 39.0664 7.16406 39.0586 6.28125V0.46875H40.1719V6.24609C40.1719 6.86328 40.3418 7.34375 40.6816 7.6875C41.0215 8.02734 41.5059 8.19727 42.1348 8.19727C42.7715 8.19727 43.2578 8.02734 43.5938 7.6875C43.9336 7.34766 44.1035 6.86914 44.1035 6.25195V0.46875H45.2344ZM55.2852 6.29297C55.1797 7.19531 54.8457 7.89258 54.2832 8.38477C53.7246 8.87305 52.9805 9.11719 52.0508 9.11719C51.043 9.11719 50.2344 8.75586 49.625 8.0332C49.0195 7.31055 48.7168 6.34375 48.7168 5.13281V4.3125C48.7168 3.51953 48.8574 2.82227 49.1387 2.2207C49.4238 1.61914 49.8262 1.1582 50.3457 0.837891C50.8652 0.513672 51.4668 0.351562 52.1504 0.351562C53.0566 0.351562 53.7832 0.605469 54.3301 1.11328C54.877 1.61719 55.1953 2.31641 55.2852 3.21094H54.1543C54.0566 2.53125 53.8438 2.03906 53.5156 1.73438C53.1914 1.42969 52.7363 1.27734 52.1504 1.27734C51.4316 1.27734 50.8672 1.54297 50.457 2.07422C50.0508 2.60547 49.8477 3.36133 49.8477 4.3418V5.16797C49.8477 6.09375 50.041 6.83008 50.4277 7.37695C50.8145 7.92383 51.3555 8.19727 52.0508 8.19727C52.6758 8.19727 53.1543 8.05664 53.4863 7.77539C53.8223 7.49023 54.0449 6.99609 54.1543 6.29297H55.2852ZM64.5449 1.39453H61.8027V9H60.6836V1.39453H57.9473V0.46875H64.5449V1.39453ZM70.2305 5.19727C69.2656 4.91992 68.5625 4.58008 68.1211 4.17773C67.6836 3.77148 67.4648 3.27148 67.4648 2.67773C67.4648 2.00586 67.7324 1.45117 68.2676 1.01367C68.8066 0.572266 69.5059 0.351562 70.3652 0.351562C70.9512 0.351562 71.4727 0.464844 71.9297 0.691406C72.3906 0.917969 72.7461 1.23047 72.9961 1.62891C73.25 2.02734 73.377 2.46289 73.377 2.93555H72.2461C72.2461 2.41992 72.082 2.01562 71.7539 1.72266C71.4258 1.42578 70.9629 1.27734 70.3652 1.27734C69.8105 1.27734 69.377 1.40039 69.0645 1.64648C68.7559 1.88867 68.6016 2.22656 68.6016 2.66016C68.6016 3.00781 68.748 3.30273 69.041 3.54492C69.3379 3.7832 69.8398 4.00195 70.5469 4.20117C71.2578 4.40039 71.8125 4.62109 72.2109 4.86328C72.6133 5.10156 72.9102 5.38086 73.1016 5.70117C73.2969 6.02148 73.3945 6.39844 73.3945 6.83203C73.3945 7.52344 73.125 8.07812 72.5859 8.49609C72.0469 8.91016 71.3262 9.11719 70.4238 9.11719C69.8379 9.11719 69.291 9.00586 68.7832 8.7832C68.2754 8.55664 67.8828 8.24805 67.6055 7.85742C67.332 7.4668 67.1953 7.02344 67.1953 6.52734H68.3262C68.3262 7.04297 68.5156 7.45117 68.8945 7.75195C69.2773 8.04883 69.7871 8.19727 70.4238 8.19727C71.0176 8.19727 71.4727 8.07617 71.7891 7.83398C72.1055 7.5918 72.2637 7.26172 72.2637 6.84375C72.2637 6.42578 72.1172 6.10352 71.8242 5.87695C71.5312 5.64648 71 5.41992 70.2305 5.19727Z" fill="black"/>
</svg>
